<svg width="21" height="21" viewBox="0 0 21 21" fill="none" xmlns="http://www.w3.org/2000/svg">
<g id="Group 30">
<path id="Combined Shape" fill-rule="evenodd" clip-rule="evenodd" d="M3.6665 0.151123C2.00965 0.151123 0.666504 1.49427 0.666504 3.15112V17.1511C0.666504 18.808 2.00965 20.1511 3.6665 20.1511H17.6665C19.3234 20.1511 20.6665 18.808 20.6665 17.1511V3.15112C20.6665 1.49427 19.3234 0.151123 17.6665 0.151123H3.6665ZM11.5468 10.4677V13.6995L10.1982 13.6989V10.4677H9.0536V9.20667H10.1976V8.26118C10.1559 7.81807 10.3175 7.3796 10.6399 7.06124C10.9623 6.74288 11.4131 6.57657 11.8735 6.60609C12.1543 6.60609 12.419 6.62136 12.6181 6.63284C12.738 6.63976 12.8341 6.6453 12.8955 6.6453V7.78811H12.2008C11.6695 7.78811 11.5468 8.06385 11.5468 8.41865V9.20667H12.8548L12.6915 10.4677H11.5468Z" fill="white"/>
</g>
</svg>
