<svg width="20" height="21" viewBox="0 0 20 21" fill="none" xmlns="http://www.w3.org/2000/svg">
<g id="Group 31">
<path id="Combined Shape" fill-rule="evenodd" clip-rule="evenodd" d="M3 0.151123C1.34315 0.151123 0 1.49427 0 3.15112V17.1511C0 18.808 1.34315 20.1511 3 20.1511H17C18.6569 20.1511 20 18.808 20 17.1511V3.15112C20 1.49427 18.6569 0.151123 17 0.151123H3ZM8.54581 6.6493C9.02882 6.60595 9.51408 6.59288 9.99872 6.61017C10.484 6.5928 10.9699 6.60587 11.4536 6.6493C11.7492 6.64836 12.0424 6.70139 12.3189 6.8058C12.5574 6.88305 12.7734 7.01736 12.9482 7.19707C13.1306 7.37275 13.2667 7.59069 13.3447 7.83157C13.4493 8.10805 13.5026 8.40131 13.5019 8.69692C13.5452 9.17993 13.5583 9.66518 13.541 10.1498C13.541 10.7238 13.5265 10.993 13.5152 11.2039V11.204V11.204L13.5152 11.204C13.5079 11.3398 13.5019 11.4514 13.5019 11.6047C13.5026 11.9015 13.4489 12.1959 13.3434 12.4733C13.1781 12.9533 12.8009 13.3304 12.3209 13.4958C12.0444 13.6004 11.7512 13.6537 11.4555 13.6529C10.9719 13.6964 10.486 13.7094 10.0007 13.6921C9.51538 13.7094 9.02947 13.6964 8.54581 13.6529C8.24812 13.6527 7.95302 13.5976 7.67524 13.4906C7.43675 13.4133 7.22073 13.279 7.04595 13.0993C6.86624 12.9245 6.73193 12.7085 6.65468 12.47C6.55027 12.1935 6.49723 11.9002 6.49818 11.6047C6.45475 11.121 6.44168 10.6351 6.45905 10.1498C6.44176 9.66518 6.45483 9.17993 6.49818 8.69692C6.47678 8.39821 6.53059 8.09891 6.65468 7.82635C6.73193 7.58787 6.86624 7.37185 7.04595 7.19707C7.22166 7.01691 7.43884 6.88257 7.6785 6.8058C7.95564 6.70116 8.24958 6.64812 8.54581 6.6493ZM11.4145 7.27858C10.9439 7.23473 10.471 7.22166 9.99872 7.23946C9.52552 7.22263 9.05173 7.23679 8.58037 7.28184C8.35215 7.27907 8.12543 7.3191 7.91196 7.39988C7.75192 7.43991 7.61247 7.53799 7.52069 7.67507C7.40738 7.78889 7.31432 7.92121 7.2455 8.06633C7.16472 8.2798 7.12469 8.50652 7.12746 8.73474C7.08361 9.2053 7.07054 9.67821 7.08834 10.1505C7.08834 10.7356 7.10338 11.0033 7.11482 11.2067C7.12182 11.3312 7.12746 11.4317 7.12746 11.5662C7.12477 11.7942 7.1648 12.0207 7.2455 12.234C7.38307 12.5287 7.62024 12.7654 7.91522 12.9024C8.12869 12.9831 8.35541 13.0232 8.58363 13.0204C9.05419 13.0643 9.52711 13.0773 9.99937 13.0595C10.5845 13.0595 10.8522 13.0445 11.0556 13.0331C11.1802 13.026 11.2806 13.0204 11.4151 13.0204C11.6431 13.0231 11.8696 12.9831 12.0829 12.9024C12.3773 12.7653 12.6139 12.5289 12.7513 12.2346C12.8321 12.0211 12.8721 11.7944 12.8693 11.5662C12.9132 11.0954 12.9263 10.6223 12.9085 10.1498C12.9085 9.56467 12.8934 9.297 12.882 9.09363V9.09361C12.875 8.96904 12.8693 8.8686 12.8693 8.73409C12.8722 8.50565 12.8321 8.2787 12.7513 8.06503C12.614 7.77054 12.3774 7.53387 12.0829 7.39661C11.8694 7.31584 11.6427 7.2758 11.4145 7.27858ZM9.99872 8.34087C9.51659 8.33303 9.05191 8.5211 8.71095 8.86206C8.36999 9.20302 8.18192 9.6677 8.18976 10.1498C8.18976 11.1489 8.99966 11.9588 9.99872 11.9588C10.9978 11.9588 11.8077 11.1489 11.8077 10.1498C11.8077 9.15076 10.9978 8.34087 9.99872 8.34087ZM9.15802 10.9907C9.38053 11.2133 9.68402 11.3359 9.99872 11.3301V11.3295C10.3133 11.3352 10.6167 11.2128 10.8392 10.9903C11.0617 10.7678 11.1841 10.4644 11.1784 10.1498C11.1841 9.83523 11.0617 9.53185 10.8392 9.30937C10.6167 9.08688 10.3133 8.96444 9.99872 8.97015C9.68413 8.96444 9.38075 9.08688 9.15826 9.30937C8.93578 9.53185 8.81333 9.83523 8.81905 10.1498C8.81315 10.4645 8.93552 10.7681 9.15802 10.9907ZM11.8866 7.82962C11.6478 7.82962 11.4542 8.02318 11.4542 8.26196C11.4542 8.50074 11.6478 8.69431 11.8866 8.69431C12.1254 8.69431 12.3189 8.50074 12.3189 8.26196C12.3168 8.02407 12.1245 7.83174 11.8866 7.82962Z" fill="white"/>
</g>
</svg>
