<svg width="46" height="54" viewBox="0 0 46 54" fill="none" xmlns="http://www.w3.org/2000/svg">
<path d="M1.9309 22.8843L12.5759 40.5076C12.5759 40.5076 18.9941 33.7223 15.7819 22.1502C12.5697 10.5781 5.86521 11.1641 5.86521 11.1641C5.86521 11.1641 0.536456 11.4726 0.0322167 16.2285C-0.291493 19.3374 1.9309 22.8843 1.9309 22.8843Z" fill="white"/>
<path d="M29.2142 45.3606L38.679 27.6333C38.679 27.6333 29.1079 25.7189 21.0067 34.2198C12.9054 42.7207 16.8777 47.9247 16.8777 47.9247C16.8777 47.9247 19.6503 52.6028 24.5802 50.2925C27.3492 48.9949 29.2142 45.3606 29.2142 45.3606Z" fill="white"/>
<path d="M34.4038 10.9516L13.9842 10.9993C13.9842 10.9993 16.8709 20.4879 28.3752 23.6543C39.8796 26.8207 42.629 20.7632 42.629 20.7632C42.629 20.7632 45.4844 16.0325 41.0465 12.7295C38.5538 10.8743 34.4038 10.9516 34.4038 10.9516Z" fill="white"/>
</svg>
