<svg width="196" height="226" viewBox="0 0 196 226" fill="none" xmlns="http://www.w3.org/2000/svg">
<path d="M8.72636 96.636L54.0784 171.718C54.0784 171.718 81.4222 142.81 67.737 93.5086C54.0518 44.2071 25.488 46.7037 25.488 46.7037C25.488 46.7037 2.78551 48.0177 0.637255 68.2797C-0.74187 81.5249 8.72636 96.636 8.72636 96.636Z" fill="white"/>
<path d="M124.963 192.394L165.287 116.868C165.287 116.868 124.511 108.712 89.9962 144.93C55.4818 181.147 72.4054 203.318 72.4054 203.318C72.4054 203.318 84.2176 223.248 105.221 213.406C117.018 207.877 124.963 192.394 124.963 192.394Z" fill="white"/>
<path d="M147.074 45.7986L60.0783 46.0017C60.0783 46.0017 72.3765 86.4266 121.389 99.9169C170.402 113.407 182.116 87.5997 182.116 87.5997C182.116 87.5997 194.281 67.445 175.374 53.3732C164.754 45.4693 147.074 45.7986 147.074 45.7986Z" fill="white"/>
</svg>
