<svg width="133" height="56" viewBox="0 0 133 56" fill="none" xmlns="http://www.w3.org/2000/svg">
<path d="M1.9309 22.8843L12.576 40.5076C12.576 40.5076 18.9941 33.7223 15.7819 22.1502C12.5697 10.5781 5.86521 11.1641 5.86521 11.1641C5.86521 11.1641 0.536456 11.4726 0.0322167 16.2285C-0.291493 19.3374 1.9309 22.8843 1.9309 22.8843Z" fill="white"/>
<path d="M29.2142 45.3606L38.679 27.6333C38.679 27.6333 29.1079 25.7189 21.0067 34.2198C12.9054 42.7207 16.8777 47.9247 16.8777 47.9247C16.8777 47.9247 19.6503 52.6028 24.5802 50.2925C27.3492 48.9949 29.2142 45.3606 29.2142 45.3606Z" fill="white"/>
<path d="M34.4038 10.9516L13.9842 10.9993C13.9842 10.9993 16.8709 20.4879 28.3752 23.6543C39.8796 26.8207 42.629 20.7632 42.629 20.7632C42.629 20.7632 45.4844 16.0325 41.0465 12.7295C38.5538 10.8743 34.4038 10.9516 34.4038 10.9516Z" fill="white"/>
<path fill-rule="evenodd" clip-rule="evenodd" d="M106.038 29.1674H108.964V15.023H106.038V29.1674ZM107.527 14.5001C108.553 14.5001 109.375 13.6786 109.375 12.6261C109.375 11.5737 108.553 10.7522 107.527 10.7522C106.474 10.7522 105.653 11.5737 105.653 12.6261C105.653 13.6786 106.474 14.5001 107.527 14.5001ZM56.813 24.1873C56.813 25.6762 56.0686 26.7544 54.5027 26.7544C52.9368 26.7544 52.218 25.6762 52.1923 24.1873H49.2402C49.2402 27.4218 51.4222 29.3471 54.5027 29.3471C57.5832 29.3471 59.7652 27.4218 59.7652 24.1873V11.3264H56.813V24.1873ZM63.0369 22.031C63.0369 26.395 65.989 29.3985 69.6599 29.3985C72.0216 29.3985 73.7159 28.269 74.6143 27.0624V29.1674H77.5665V15.023H74.6143V17.0766C73.7415 15.9214 72.0986 14.7919 69.7113 14.7919C65.989 14.7919 63.0369 17.667 63.0369 22.031ZM74.6143 22.0824C74.6143 25.1372 72.535 26.8571 70.3274 26.8571C68.1454 26.8571 66.0404 25.0858 66.0404 22.031C66.0404 18.9762 68.1454 17.3333 70.3274 17.3333C72.535 17.3333 74.6143 19.0532 74.6143 22.0824ZM83.8232 15.023V17.1023C84.7217 15.9214 86.4416 14.7919 88.752 14.7919C92.4742 14.7919 95.4007 17.667 95.4007 22.031C95.4007 26.395 92.4742 29.3985 88.752 29.3985C86.416 29.3985 84.7474 28.2176 83.8232 27.1138V33.8665H80.8968V15.023H83.8232ZM88.1102 26.8571C90.3179 26.8571 92.4229 25.0858 92.4229 22.031C92.4229 18.9762 90.3179 17.3333 88.1102 17.3333C85.9282 17.3333 83.8232 19.0532 83.8232 22.0824C83.8232 25.1372 85.9282 26.8571 88.1102 26.8571ZM125.231 29.1674H122.33V21.2609C122.33 18.6682 120.918 17.3333 118.788 17.3333C116.631 17.3333 115.219 18.6682 115.219 21.2609V29.1674H112.293V15.023H115.219V16.6402C116.169 15.485 117.735 14.7919 119.429 14.7919C122.741 14.7919 125.231 16.8712 125.231 20.8245V29.1674ZM128.45 29.1674H131.377V15.023H128.45V29.1674ZM129.939 14.5001C130.966 14.5001 131.788 13.6786 131.788 12.6261C131.788 11.5737 130.966 10.7522 129.939 10.7522C128.887 10.7522 128.065 11.5737 128.065 12.6261C128.065 13.6786 128.887 14.5001 129.939 14.5001ZM98.2897 15.4727V12.0477H101.334V15.4727H103.871V17.9675H101.334V28.6232H98.2897V18.1789H95.7526V15.4727H98.2897ZM77.3522 50.0063H75.6276V42.2079C75.6276 39.1835 73.9779 37.6338 71.4784 37.6338C68.9289 37.6338 67.1543 39.2335 67.1543 42.5578V50.0063H65.4046V36.3591H67.1543V38.6836C68.0291 36.9839 69.7788 36.1091 71.8034 36.1091C74.9027 36.1091 77.3522 38.0087 77.3522 42.0079V50.0063ZM60.6788 42.4328C60.7538 39.2585 58.4543 37.6588 55.9298 37.6588C53.4553 37.6588 51.2807 39.2585 51.0807 42.4328H60.6788ZM60.4039 45.6822H62.2535C61.6286 48.2567 59.4291 50.2063 56.0048 50.2063C52.1305 50.2063 49.3061 47.5068 49.3061 43.1827C49.3061 38.8336 52.0805 36.1591 56.0048 36.1591C60.004 36.1591 62.4535 39.0085 62.4535 42.4828C62.4535 43.0327 62.4535 43.3826 62.4035 43.8576H51.0807C51.2307 47.0569 53.4553 48.7316 56.0048 48.7316C58.3293 48.7316 59.904 47.5068 60.4039 45.6822ZM86.7957 37.6588C89.3202 37.6588 91.6197 39.2585 91.5447 42.4328H81.9466C82.1466 39.2585 84.3212 37.6588 86.7957 37.6588ZM93.1194 45.6822H91.2698C90.7699 47.5068 89.1952 48.7316 86.8706 48.7316C84.3212 48.7316 82.0966 47.0569 81.9466 43.8576H93.2694C93.3193 43.3826 93.3194 43.0327 93.3194 42.4828C93.3194 39.0085 90.8698 36.1591 86.8706 36.1591C82.9464 36.1591 80.172 38.8336 80.172 43.1827C80.172 47.5068 82.9964 50.2063 86.8706 50.2063C90.295 50.2063 92.4945 48.2567 93.1194 45.6822ZM102.219 37.9337C99.9448 37.9337 98.0202 38.9585 98.0202 42.3829V50.0063H96.2705V36.3591H98.0202V38.7836C98.77 37.1089 100.345 36.1091 102.694 36.1091V37.9337H102.219ZM104.277 43.1577C104.277 47.4318 107.051 50.2063 110.8 50.2063C113.5 50.2063 115.399 48.7316 116.199 46.9819V49.0052C116.199 52.1046 114.175 53.8292 111.575 53.8292C109.076 53.8292 107.351 52.5545 106.776 50.7048H105.051C105.601 53.5543 108.051 55.3539 111.575 55.3539C115.324 55.3539 117.949 52.8294 117.949 49.0052V36.3591H116.199V39.3335C115.424 37.6088 113.5 36.1591 110.8 36.1591C107.051 36.1591 104.277 38.8836 104.277 43.1577ZM116.199 43.1827C116.199 46.582 113.925 48.6816 111.125 48.6816C108.251 48.6816 106.051 46.607 106.051 43.1577C106.051 39.6834 108.251 37.6838 111.125 37.6838C113.925 37.6838 116.199 39.7834 116.199 43.1827ZM121.993 36.3591L126.642 48.0067L131.141 36.3591H132.941L125.518 54.4034H123.693L125.667 49.9313L120.068 36.3591H121.993Z" fill="white"/>
</svg>
