<svg width="197" height="82" viewBox="0 0 197 82" fill="none" xmlns="http://www.w3.org/2000/svg">
<path d="M2.8583 33.3515L18.6161 59.4393C18.6161 59.4393 28.1169 49.395 23.3619 32.2649C18.6069 15.1347 8.68225 16.0022 8.68225 16.0022C8.68225 16.0022 0.794114 16.4588 0.0476902 23.4989C-0.431495 28.101 2.8583 33.3515 2.8583 33.3515Z" fill="url(#paint0_linear_6_796)"/>
<path d="M43.2456 66.6231L57.2563 40.3814C57.2563 40.3814 43.0883 37.5475 31.096 50.1314C19.1037 62.7153 24.984 70.4187 24.984 70.4187C24.984 70.4187 29.0882 77.3438 36.3859 73.9238C40.4849 72.0029 43.2456 66.6231 43.2456 66.6231Z" fill="url(#paint1_linear_6_796)"/>
<path d="M50.9279 15.6877L20.7008 15.7583C20.7008 15.7583 24.9739 29.8042 42.0037 34.4914C59.0336 39.1787 63.1035 30.2118 63.1035 30.2118C63.1035 30.2118 67.3303 23.2089 60.7609 18.3195C57.071 15.5733 50.9279 15.6877 50.9279 15.6877Z" fill="url(#paint2_linear_6_796)"/>
<path fill-rule="evenodd" clip-rule="evenodd" d="M156.967 42.6523H161.299V21.7143H156.967V42.6523ZM159.171 20.9403C160.691 20.9403 161.907 19.7243 161.907 18.1663C161.907 16.6083 160.691 15.3923 159.171 15.3923C157.613 15.3923 156.397 16.6083 156.397 18.1663C156.397 19.7243 157.613 20.9403 159.171 20.9403ZM84.1001 35.2803C84.1001 37.4843 82.9981 39.0803 80.6801 39.0803C78.3621 39.0803 77.2981 37.4843 77.2601 35.2803H72.8901C72.8901 40.0683 76.1201 42.9183 80.6801 42.9183C85.2401 42.9183 88.4701 40.0683 88.4701 35.2803V16.2423H84.1001V35.2803ZM93.3134 32.0883C93.3134 38.5483 97.6834 42.9943 103.117 42.9943C106.613 42.9943 109.121 41.3223 110.451 39.5363V42.6523H114.821V21.7143H110.451V24.7543C109.159 23.0443 106.727 21.3723 103.193 21.3723C97.6834 21.3723 93.3134 25.6283 93.3134 32.0883ZM110.451 32.1643C110.451 36.6863 107.373 39.2323 104.105 39.2323C100.875 39.2323 97.7594 36.6103 97.7594 32.0883C97.7594 27.5663 100.875 25.1343 104.105 25.1343C107.373 25.1343 110.451 27.6803 110.451 32.1643ZM124.083 21.7143V24.7923C125.413 23.0443 127.959 21.3723 131.379 21.3723C136.889 21.3723 141.221 25.6283 141.221 32.0883C141.221 38.5483 136.889 42.9943 131.379 42.9943C127.921 42.9943 125.451 41.2463 124.083 39.6123V49.6083H119.751V21.7143H124.083ZM130.429 39.2323C133.697 39.2323 136.813 36.6103 136.813 32.0883C136.813 27.5663 133.697 25.1343 130.429 25.1343C127.199 25.1343 124.083 27.6803 124.083 32.1643C124.083 36.6863 127.199 39.2323 130.429 39.2323ZM185.379 42.6523H181.085V30.9483C181.085 27.1103 178.995 25.1343 175.841 25.1343C172.649 25.1343 170.559 27.1103 170.559 30.9483V42.6523H166.227V21.7143H170.559V24.1083C171.965 22.3983 174.283 21.3723 176.791 21.3723C181.693 21.3723 185.379 24.4503 185.379 30.3023V42.6523ZM190.145 42.6523H194.477V21.7143H190.145V42.6523ZM192.349 20.9403C193.869 20.9403 195.085 19.7243 195.085 18.1663C195.085 16.6083 193.869 15.3923 192.349 15.3923C190.791 15.3923 189.575 16.6083 189.575 18.1663C189.575 19.7243 190.791 20.9403 192.349 20.9403ZM145.498 22.3805V17.3104H150.005V22.3805H153.76V26.0735H150.005V41.847H145.498V26.3864H141.742V22.3805H145.498ZM114.504 73.5003H111.951V61.9563C111.951 57.4793 109.509 55.1853 105.809 55.1853C102.035 55.1853 99.4082 57.5533 99.4082 62.4743V73.5003H96.8182V53.2983H99.4082V56.7393C100.703 54.2233 103.293 52.9283 106.29 52.9283C110.878 52.9283 114.504 55.7403 114.504 61.6603V73.5003ZM89.8226 62.2893C89.9336 57.5903 86.5296 55.2223 82.7926 55.2223C79.1296 55.2223 75.9106 57.5903 75.6146 62.2893H89.8226ZM89.4156 67.0993H92.1536C91.2286 70.9103 87.9726 73.7963 82.9036 73.7963C77.1686 73.7963 72.9876 69.8003 72.9876 63.3993C72.9876 56.9613 77.0946 53.0023 82.9036 53.0023C88.8236 53.0023 92.4496 57.2203 92.4496 62.3633C92.4496 63.1773 92.4496 63.6953 92.3756 64.3983H75.6146C75.8366 69.1343 79.1296 71.6133 82.9036 71.6133C86.3446 71.6133 88.6756 69.8003 89.4156 67.0993ZM128.483 55.2223C132.22 55.2223 135.624 57.5903 135.513 62.2893H121.305C121.601 57.5903 124.82 55.2223 128.483 55.2223ZM137.844 67.0993H135.106C134.366 69.8003 132.035 71.6133 128.594 71.6133C124.82 71.6133 121.527 69.1343 121.305 64.3983H138.066C138.14 63.6953 138.14 63.1773 138.14 62.3633C138.14 57.2203 134.514 53.0023 128.594 53.0023C122.785 53.0023 118.678 56.9613 118.678 63.3993C118.678 69.8003 122.859 73.7963 128.594 73.7963C133.663 73.7963 136.919 70.9103 137.844 67.0993ZM151.315 55.6293C147.948 55.6293 145.099 57.1463 145.099 62.2153V73.5003H142.509V53.2983H145.099V56.8873C146.209 54.4083 148.54 52.9283 152.018 52.9283V55.6293H151.315ZM154.36 63.3623C154.36 69.6893 158.467 73.7963 164.017 73.7963C168.013 73.7963 170.825 71.6133 172.009 69.0233V72.0183C172.009 76.6063 169.012 79.1593 165.164 79.1593C161.464 79.1593 158.911 77.2723 158.06 74.5343H155.507C156.321 78.7523 159.947 81.4163 165.164 81.4163C170.714 81.4163 174.599 77.6793 174.599 72.0183V53.2983H172.009V57.7013C170.862 55.1483 168.013 53.0023 164.017 53.0023C158.467 53.0023 154.36 57.0353 154.36 63.3623ZM172.009 63.3993C172.009 68.4313 168.642 71.5393 164.498 71.5393C160.243 71.5393 156.987 68.4683 156.987 63.3623C156.987 58.2193 160.243 55.2593 164.498 55.2593C168.642 55.2593 172.009 58.3673 172.009 63.3993ZM180.586 53.2983L187.468 70.5403L194.128 53.2983H196.792L185.804 80.0093H183.103L186.025 73.3893L177.737 53.2983H180.586Z" fill="#58595B"/>
<defs>
<linearGradient id="paint0_linear_6_796" x1="4.58077" y1="50.5441" x2="27.5531" y2="19.492" gradientUnits="userSpaceOnUse">
<stop offset="0.645833" stop-color="#00B0F0"/>
<stop offset="1" stop-color="#B2D235"/>
</linearGradient>
<linearGradient id="paint1_linear_6_796" x1="31.16" y1="71.0871" x2="61.9987" y2="36.478" gradientUnits="userSpaceOnUse">
<stop offset="0.432166" stop-color="#00B0F0"/>
<stop offset="0.879419" stop-color="#B2D235"/>
</linearGradient>
<linearGradient id="paint2_linear_6_796" x1="11.2711" y1="34.1505" x2="64.2747" y2="25.7546" gradientUnits="userSpaceOnUse">
<stop stop-color="#00B0F0"/>
<stop offset="0.553545" stop-color="#B2D235"/>
</linearGradient>
</defs>
</svg>
