<svg width="21" height="21" viewBox="0 0 21 21" fill="none" xmlns="http://www.w3.org/2000/svg">
<g id="Group 29">
<path id="Combined Shape" fill-rule="evenodd" clip-rule="evenodd" d="M3.3335 0.151123C1.67664 0.151123 0.333496 1.49427 0.333496 3.15112V17.1511C0.333496 18.808 1.67664 20.1511 3.3335 20.1511H17.3335C18.9904 20.1511 20.3335 18.808 20.3335 17.1511V3.15112C20.3335 1.49427 18.9904 0.151123 17.3335 0.151123H3.3335ZM7.43027 6.60274C7.04939 6.60274 6.78511 6.8728 6.78511 7.2479C6.78511 7.62299 7.04939 7.89306 7.43027 7.89306C7.81115 7.89306 8.07543 7.62299 8.07543 7.2479C8.07543 6.8728 7.81115 6.60274 7.43027 6.60274ZM6.78511 8.53822V13.6995H8.07543V8.53822H6.78511ZM9.36575 13.6995V8.59515H10.6609V9.48699C10.9805 8.85131 11.5187 8.54771 12.2251 8.53822C13.2343 8.53822 13.8819 9.29723 13.8819 10.4927V13.6995H12.5868V10.9196C12.5868 10.2745 12.2504 9.87598 11.6953 9.87598C11.0477 9.88547 10.6609 10.4358 10.6609 11.1853V13.6995H9.36575Z" fill="white"/>
</g>
</svg>
