<svg width="20" height="21" viewBox="0 0 20 21" fill="none" xmlns="http://www.w3.org/2000/svg">
<g id="Group 27">
<path id="Combined Shape" fill-rule="evenodd" clip-rule="evenodd" d="M3 0.151123C1.34315 0.151123 0 1.49427 0 3.15112V17.1511C0 18.808 1.34315 20.1511 3 20.1511H17C18.6569 20.1511 20 18.808 20 17.1511V3.15112C20 1.49427 18.6569 0.151123 17 0.151123H3ZM10.1033 8.78734C8.6848 8.67055 7.37941 7.97876 6.4995 6.8775C6.00261 7.68469 6.17929 8.72806 6.91532 9.33301C6.62242 9.29743 6.33968 9.20468 6.08367 9.06018C6.20351 9.89052 6.79616 10.5798 7.60837 10.8336C7.34256 10.931 7.06024 10.9773 6.77671 10.97C7.08981 11.6255 7.71294 12.0855 8.44002 12.1978C7.64066 12.6546 6.73072 12.8902 5.80645 12.8799C6.67093 13.4347 7.6854 13.72 8.71724 13.6984C10.1026 13.6635 11.4147 13.0784 12.3547 12.0761C13.2947 11.0739 13.7825 9.73999 13.7072 8.37809C14.1459 8.19818 14.4946 7.85496 14.6774 7.42317C14.387 7.6032 14.0504 7.69786 13.7072 7.696C14.0416 7.46432 14.286 7.12757 14.4002 6.74108C14.088 6.99656 13.6972 7.14077 13.2913 7.15033C12.9312 6.77977 12.4257 6.58077 11.9052 6.60466C11.3457 6.58975 10.8109 6.83158 10.458 7.25913C10.105 7.68668 9.97395 8.25138 10.1033 8.78734Z" fill="white"/>
</g>
</svg>
